# xmcd
#
# Track frame offsets: 
#        150
#        26482
#        59166
#        92675
#        122594
#        155403
#        183267
#        213948
#        247832
#
# Disc length: 3805 seconds
#
# Revision: 2
# Processed by: cddbd v1.5.2PL0 Copyright (c) Steve Scherf et al.
# Submitted via: ExactAudioCopy v0.99pb4
#
DISCID=700edb09
DTITLE=1200 Micrograms - The Time Machine
DYEAR=2004
DGENRE=Psychedelic
TTITLE0=The Creation
TTITLE1=Egypt (Land of the Pharoahs)
TTITLE2=Stoned Henge
TTITLE3=Shiva's India
TTITLE4=Rock Into the Future
TTITLE5=Glories of Greece
TTITLE6=The Mayans, Incas and Aztecs
TTITLE7=Garden of Eden
TTITLE8=1001 Arabian Nights
EXTD=YEAR: 2004
EXTT0=
EXTT1=
EXTT2=
EXTT3=
EXTT4=
EXTT5=
EXTT6=
EXTT7=
EXTT8=
PLAYORDER=
